<?xml version="1.0" encoding="utf-8"?>
<!DOCTYPE svg>
<svg version="1.1" baseProfile="full" xmlns="http://www.w3.org/2000/svg" xmlns:xlink="http://www.w3.org/1999/xlink" x="0px" y="0px" width="320px" height="32px" viewBox="0 0 320 32" enable-background="new 0 0 320 32" xml:space="preserve">
<g id="svg-facebook">
	<rect fill="#3b5998" width="32" height="32"/>
	<path fill="#ffffff" d="M22,32V20h4l0.8-5H22v-3.3c0-1.4,0.5-2.4,2.5-2.4l2.5,0V5c-0.4-0.1-1.9-0.2-3.7-0.2c-3.7,0-6.3,2.3-6.3,6.4V15h-4v5h4v12H22z"/>
</g>
<g id="svg-googleplus">
	<rect x="32" fill="#ce3825" width="32" height="32"/>
	<polygon fill="#ffffff" points="63,8 58,8 58,3 56,3 56,8 51,8 51,10 56,10 56,15 58,15 58,10 63,10"/>
	<path fill="#ffffff" d="M50.5,2h-9.7c-1.288,0-2.667,0.151-4.138,0.452c-1.486,0.349-2.919,1.094-4.298,2.236C32.238,4.809,32.117,4.932,32,5.055v11.91c1.32,1.239,3.114,1.873,5.381,1.9c0.488,0,1.007-0.031,1.558-0.097c-0.091,0.256-0.19,0.535-0.296,0.838c-0.122,0.287-0.182,0.646-0.182,1.076c0,0.717,0.159,1.331,0.478,1.842c0.274,0.525,0.586,1.021,0.935,1.483c-1.131,0.031-2.554,0.173-4.266,0.427c-1.243,0.216-2.446,0.59-3.608,1.116v2.683c0.216-0.301,0.455-0.568,0.719-0.803c0.463-0.381,0.919-0.674,1.366-0.881c0.448-0.19,0.795-0.332,1.043-0.429c1.049-0.316,2.077-0.547,3.081-0.688c1.019-0.096,1.652-0.127,1.9-0.096c0.417,0,0.779,0.016,1.088,0.047c1.807,1.271,3.135,2.34,3.984,3.213c0.803,0.921,1.205,1.998,1.205,3.235c0,0.057-0.002,0.112-0.004,0.169h2.841c0.191-0.667,0.287-1.358,0.287-2.074c-0.029-1.666-0.408-3.013-1.135-4.045c-0.771-1.015-1.668-1.941-2.69-2.783l-1.646-1.357c-0.237-0.236-0.481-0.514-0.733-0.832c-0.296-0.332-0.445-0.753-0.445-1.261c0-0.522,0.145-0.982,0.434-1.38c0.246-0.38,0.513-0.722,0.802-1.023c0.506-0.444,0.983-0.88,1.431-1.309c0.404-0.428,0.788-0.896,1.149-1.403c0.737-1.047,1.12-2.442,1.149-4.186c0-0.952-0.107-1.784-0.32-2.498c-0.259-0.714-0.555-1.332-0.891-1.855c-0.35-0.555-0.709-1.023-1.074-1.403C45.161,4.226,44.818,4.19,44.514,4h2.99L50.5,2z M43.607,14.247c-0.117,0.651-0.381,1.287-0.791,1.906c-0.852,0.875-1.916,1.335-3.192,1.384c-1.01,0-1.909-0.31-2.695-0.931c-0.786-0.62-1.428-1.375-1.925-2.265c-1.027-1.906-1.54-3.743-1.54-5.506c-0.032-1.334,0.32-2.542,1.055-3.623c0.871-1.034,1.964-1.565,3.279-1.598c0.994,0.032,1.873,0.326,2.637,0.882c0.748,0.588,1.353,1.35,1.812,2.288c0.977,1.955,1.467,3.894,1.467,5.816C43.713,13.047,43.678,13.595,43.607,14.247z"/>
</g>
<g id="svg-googleplus">
	<rect x="64" fill="#00aced" width="32" height="32"/>
	<path fill="#ffffff" d="M90.666,9.384c-0.784,0.348-1.628,0.583-2.514,0.689c0.904-0.542,1.598-1.399,1.925-2.422c-0.847,0.5-1.782,0.866-2.779,1C86.5,7.8,85.361,7.269,84.104,7.269c-2.418,0-4.376,1.959-4.376,4.376c0,0.343,0,0.677,0.113,1c-3.638-0.183-6.863-1.925-9-4.573c-0.376,0.646-0.592,1.398-0.592,2.2c0,1.519,0.772,2.858,1.947,3.643c-0.717,0-1.392-0.22-1.982-0.547l0,0c0,2.12,1.5,3.889,3.511,4.292c-0.367,0.1-0.754,0.152-1.153,0.152c-0.282,0-0.556,0-0.823,0c0.557,1.739,2.173,3,4,3c-1.498,1.176-3.385,1.875-5.436,1.875c-0.354,0-0.702,0-1-0.062c1.937,1.241,4.237,1.967,6.709,1.967c8.051,0,12.454-6.669,12.454-12.453c0-0.19,0-0.378,0-0.566C89.338,11.032,90.08,10.262,90.666,9.384z"/>
</g>
<g id="svg-youtube">
	<linearGradient id="svg-youtube-grad" gradientUnits="userSpaceOnUse" x1="85.2559" y1="-31.3239" x2="85.2559" y2="-46.3243" gradientTransform="matrix(1 0 0 1 26.7441 61.3242)">
		<stop offset="0" style="stop-color:#6d0d13"/>
		<stop offset="0.6183" style="stop-color:#ab2624"/>
		<stop offset="1" style="stop-color:#cd332d"/>
	</linearGradient>
	<rect x="96" fill="#ebebeb" width="32" height="32"/>
	<g fill="#242424">
		<path d="M104,2h1.61l1.037,4.397h0.101L107.736,2h1.624l-1.86,6.436V13h-1.599V8.641L104,2z"/>
		<path d="M109.248,6.986c0-0.605,0.19-1.087,0.573-1.447C110.203,5.18,110.717,5,111.361,5c0.587,0,1.069,0.189,1.443,0.568c0.376,0.379,0.563,0.866,0.563,1.462v4.041c0,0.67-0.184,1.195-0.551,1.576c-0.368,0.381-0.874,0.571-1.519,0.571c-0.621,0-1.118-0.196-1.49-0.59c-0.373-0.393-0.559-0.922-0.559-1.587V6.986z M110.709,11.188c0,0.215,0.05,0.382,0.151,0.499c0.101,0.117,0.246,0.176,0.433,0.176c0.192,0,0.346-0.06,0.459-0.18c0.112-0.12,0.17-0.285,0.17-0.496V6.927c0-0.17-0.059-0.309-0.174-0.414c-0.116-0.105-0.267-0.158-0.455-0.158c-0.174,0-0.312,0.053-0.421,0.158c-0.108,0.105-0.162,0.243-0.162,0.414V11.188z"/>
		<path d="M118.624,5v8h-1.421v-0.863c-0.262,0.318-0.533,0.561-0.816,0.727c-0.283,0.166-0.558,0.249-0.824,0.249c-0.327,0-0.575-0.116-0.741-0.35c-0.166-0.232-0.249-0.582-0.249-1.048V5h1.419v6.174c0,0.185,0.029,0.319,0.089,0.403c0.06,0.083,0.155,0.125,0.289,0.125c0.104,0,0.237-0.056,0.396-0.165c0.159-0.11,0.307-0.25,0.438-0.421V5H118.624z"/>
	</g>
	<path fill="url(#svg-youtube-grad)" d="M112,30c2.874,0.002,5.763,0,8.614-0.301c1.203-0.125,2.204-0.97,2.484-2.114c0.401-1.629,0.401-3.409,0.401-5.086l0,0c0-1.679-0.005-3.456-0.405-5.087c-0.281-1.145-1.281-1.988-2.484-2.113C117.757,15,114.874,14.999,112,15c-2.874-0.001-5.757,0-8.61,0.299c-1.204,0.125-2.204,0.969-2.485,2.113c-0.401,1.631-0.405,3.408-0.405,5.087l0,0c0,1.677,0,3.457,0.401,5.086c0.281,1.145,1.281,1.989,2.485,2.114C106.238,30,109.126,30.002,112,30z"/>
	<g fill="#ffffff">
		<polygon points="107.318,17 102.705,17 102.705,18.597 104.26,18.597 104.26,28 105.763,28 105.763,18.597 107.318,18.597 "/>
		<path d="M109.774,26.063c-0.125,0.175-0.263,0.32-0.413,0.433c-0.15,0.112-0.274,0.169-0.372,0.169c-0.125,0-0.216-0.043-0.272-0.128c-0.056-0.084-0.084-0.223-0.084-0.414V20H107.3v6.681c0,0.479,0.078,0.837,0.234,1.076c0.157,0.239,0.389,0.358,0.698,0.358c0.25,0,0.509-0.086,0.774-0.256c0.266-0.171,0.522-0.42,0.768-0.747V28h1.335v-8h-1.335V26.063z"/>
		<path d="M114.945,19.861c-0.207,0-0.411,0.066-0.613,0.193c-0.201,0.127-0.394,0.313-0.572,0.559V17h-1.349v11h1.349v-0.619c0.175,0.246,0.364,0.427,0.568,0.544c0.206,0.118,0.438,0.176,0.699,0.176c0.396,0,0.697-0.15,0.905-0.454c0.21-0.305,0.314-0.74,0.314-1.312v-4.459c0-0.656-0.111-1.156-0.335-1.498C115.69,20.034,115.368,19.861,114.945,19.861z M114.874,26.117c0,0.255-0.039,0.44-0.116,0.553c-0.078,0.113-0.197,0.169-0.36,0.169c-0.113,0-0.221-0.029-0.323-0.087c-0.102-0.058-0.206-0.152-0.314-0.282v-5.007c0.09-0.11,0.181-0.192,0.274-0.245c0.094-0.052,0.188-0.08,0.282-0.08c0.182,0,0.319,0.072,0.416,0.213c0.093,0.14,0.142,0.346,0.142,0.616V26.117z"/>
		<path d="M121.179,24.17v-2.045c0-0.763-0.162-1.349-0.489-1.755c-0.329-0.405-0.798-0.609-1.409-0.609c-0.597,0-1.083,0.219-1.46,0.658c-0.378,0.44-0.566,1.008-0.566,1.706v3.605c0,0.774,0.171,1.382,0.515,1.824c0.344,0.441,0.813,0.662,1.412,0.662c0.664,0,1.163-0.208,1.498-0.626c0.334-0.416,0.5-1.037,0.5-1.86V25h-1.372v0.685c0,0.473-0.044,0.78-0.132,0.916c-0.088,0.139-0.242,0.208-0.465,0.208c-0.212,0-0.363-0.082-0.45-0.245c-0.088-0.164-0.132-0.456-0.132-0.879V24.17H121.179z M118.628,22.109c0-0.336,0.046-0.577,0.138-0.723c0.093-0.146,0.245-0.219,0.458-0.219c0.203,0,0.352,0.072,0.443,0.219c0.093,0.146,0.14,0.387,0.14,0.723V23h-1.179V22.109z"/>
	</g>
</g>
<g id="svg-menu" fill="#532f00">
	<rect x="132" y="6" width="24" height="4"/>
	<rect x="132" y="14" width="24" height="4"/>
	<rect x="132" y="22" width="24" height="4"/>
</g>
<g id="svg-share" fill="#532f00">
	<path d="M186.486,22.966c-0.865,0-1.657,0.313-2.269,0.832l-5.184-3.715c0.343-0.703,0.536-1.493,0.536-2.328c0-1.149-0.365-2.214-0.986-3.083l6.097-6.134c0.526,0.314,1.14,0.494,1.797,0.494c1.941,0,3.514-1.575,3.514-3.517S188.419,2,186.479,2c-1.941,0-3.514,1.575-3.514,3.517c0,0.651,0.177,1.261,0.485,1.784l-6.118,6.124c-0.866-0.615-1.923-0.976-3.065-0.976c-2.032,0-3.797,1.144-4.688,2.824l-4.081-1.362c-0.159-0.813-0.874-1.426-1.733-1.426c-0.975,0-1.766,0.791-1.766,1.767s0.791,1.767,1.766,1.767c0.456,0,0.871-0.173,1.184-0.457l4.082,1.342c-0.045,0.277-0.068,0.561-0.068,0.851c0,2.931,2.374,5.308,5.303,5.308c1.473,0,2.806-0.601,3.767-1.572l5.17,3.736c-0.149,0.39-0.231,0.813-0.231,1.256c0,1.942,1.573,3.517,3.514,3.517c1.941,0,3.514-1.575,3.514-3.517S188.427,22.966,186.486,22.966z"/>
</g>
<g id="svg-buy" fill="#532f00">
	<path d="M219,18h-2v-6h2V18z M205,12h2v6h-2V12z M201,12h2v6h-2V12z M213,18v-6h2v6H213z M211,12v6h-2v-6H211z M205,20h2v6h-2V20z M201,20h2v6h-2V20z M213,26v-6h2v6H213z M211,20v6h-2v-6H211z M199,12v6h-2v-6H199z M197,25c0-0.833,0-5,0-5h2v6c0,0-0.333,0-1,0C197.417,26,197,25.667,197,25z M217,20h2c0,0,0,4.167,0,5c0,0.646-0.438,1-1,1c-0.667,0-1,0-1,0V20z M218.5,29c1.933,0,3.5-1.567,3.5-3.5V12h1V9h-12.25l5.75-5.798c0.504-0.504,0.719-1.321,0.215-1.824c-0.504-0.504-1.461-0.504-1.965,0L207.25,9H193v3h1v13.5c0,1.933,1.567,3.5,3.5,3.5H218.5z"/>
</g>
<g id="svg-up" fill="#532f00">
	<path d="M240,4l-11,11h7v13l8,0V15h7L240,4z"/>
</g>
<g id="svg-telephone" fill="#a48d6f">
	<path d="M284.985,23.519c-0.062-0.383-0.302-0.711-0.662-0.906l-5.324-3.138l-0.044-0.025c-0.215-0.11-0.464-0.167-0.719-0.167c-0.446,0-0.872,0.169-1.168,0.466l-1.572,1.573c-0.067,0.064-0.286,0.156-0.353,0.16c-0.018-0.001-1.829-0.132-5.161-3.466c-3.327-3.327-3.468-5.144-3.469-5.144c0.002-0.093,0.093-0.311,0.158-0.379l1.34-1.34c0.472-0.473,0.614-1.258,0.334-1.866l-2.96-5.571C265.17,3.273,264.752,3,264.288,3c-0.328,0-0.644,0.136-0.892,0.383l-3.653,3.646c-0.35,0.349-0.652,0.958-0.718,1.448c-0.032,0.234-0.68,5.831,6.99,13.504C272.527,28.494,277.605,29,279.007,29l0,0c0.302,0,0.477-0.022,0.511-0.026c0.489-0.065,1.097-0.366,1.445-0.715l3.65-3.651C284.911,24.308,285.047,23.912,284.985,23.519z"/>
</g>
<g id="svg-email" fill="#a48d6f">
	<path d="M290,6h28v20h-28V6z M293,23h22V11.5L304,20l-11-8.5V23z M294,9l10,7.5L314,9H294z"/>
</g>
</svg>
