<?xml version="1.0" encoding="utf-8"?>
<!DOCTYPE svg>
<svg version="1.1" baseProfile="full" xmlns="http://www.w3.org/2000/svg" xmlns:xlink="http://www.w3.org/1999/xlink" x="0px" y="0px" width="128px" height="40px" viewBox="0 0 128 40" enable-background="new 0 0 128 40" xml:space="preserve">
<rect fill="#532f00" width="128" height="40"/>
<g fill="#1a171b">
	<path d="M88.903,18.561l-0.039-0.107c-0.063-0.174-0.224-0.382-0.64-0.382c-0.242,0-0.456,0.071-0.46,0.072c-3.131,0.73-3.999,1.665-6.261,3.036c0.061-0.752,0.128-2.145,0.059-2.639l-0.021-0.152l-0.146,0.048c-0.714,0.235-1.287,0.586-1.702,1.043c-0.404,0.451-0.722,0.979-0.944,1.567c-0.058,0.156-0.146,0.672-0.24,1.217c-0.07,0.4-0.141,0.815-0.194,1.045c-0.124,0.53-0.242,1.028-0.35,1.474c-0.413,1.095-0.688,2.008-0.825,2.735c-1.354,0.211-2.193,0.318-2.491,0.318c-0.554,0-0.971-0.102-1.242-0.304c-0.252-0.19-0.344-0.528-0.273-0.998c0.121-0.456,0.509-1.384,1.189-2.838c0.297-0.584,0.505-1.097,0.62-1.525c0.101-0.381,0.147-0.764,0.135-1.14c-0.012-0.371-0.082-0.742-0.205-1.104l-0.05-0.145l-0.134,0.075c-0.842,0.469-1.665,1.26-2.448,2.352c-0.423,0.578-1.06,1.503-1.946,2.824c-0.821,1.044-1.576,1.861-2.244,2.432c-1.08,0.918-2.091,1.384-3.005,1.384c-1.086,0-1.706-0.383-1.84-1.135c-0.07-0.391,0.04-1.139,0.327-2.22c0.035-0.127,0.202-0.623,0.799-2.264c0.124-0.336,0.256-0.77,0.395-1.288c0.137-0.52,0.214-0.994,0.229-1.409c0.016-0.43-0.054-0.852-0.207-1.259l-0.046-0.121L64.58,19.2c-0.835,0.33-1.469,0.781-1.887,1.341c-0.412,0.553-0.735,1.261-0.958,2.103c-0.094,0.346-0.197,0.838-0.308,1.462c-0.114,0.64-0.204,1.077-0.273,1.336c-0.025,0.087-0.132,0.389-0.329,0.924c-0.202,0.551-0.345,0.985-0.435,1.325c-0.091,0.339-0.125,0.649-0.101,0.924c0.023,0.295,0.137,0.57,0.337,0.82c0.369,0.408,0.906,0.729,1.597,0.952c0.681,0.222,1.467,0.335,2.333,0.335c1.075,0,2.016-0.208,2.88-0.637c0.472-0.235,2.178-1.555,2.61-1.891c0.219,0.162,0.518,0.39,0.911,0.695c0.384,0.284,0.955,0.532,1.246,0.628c0.656,0.219,1.326,0.331,1.991,0.331c1.15,0,2.158-0.333,2.971-0.748c0.309,0.637,1.118,1.084,1.546,1.321l0.1,0.055l0.067-0.093c1.608-2.243,2.283-5.481,2.338-5.759c1.337-1.779,4.963-4.713,7.584-6.013L88.903,18.561z"/>
	<path d="M120.078,24.859c-0.876-0.682-0.949-0.682-1.013-0.682c-0.115,0-2.521,1.245-2.867,1.403c-0.304,0.137-0.635,0.276-1.014,0.428l-2.776,1.234c-0.208-1.269-0.408-2.582-0.593-3.906c-0.305-1.94-0.953-2.999-1.921-3.146c-0.119-0.024-0.276-0.035-0.476-0.035c-1.067,0-2.423,0.578-4.027,1.716c-0.78,0.558-1.871,1.335-3.273,2.332c0.218-0.657,0.735-2.151,1.573-4.544c0.303-0.866,0.604-1.854,0.892-2.935l0.043-0.162h-0.166c-0.904,0-1.673,0.3-2.283,0.889c-0.61,0.59-1.14,1.754-1.619,3.556c0,0-0.272,1.018-0.329,1.235c-0.107,0.405-0.494,1.859-0.494,1.859c-0.072,0.269-0.147,0.496-0.22,0.668c-0.406,0.769-0.829,1.607-1.261,2.49c-0.298,0.138-0.628,0.295-0.994,0.474c-1.064,0.519-2.039,0.783-2.896,0.783c-1.455,0-2.492-0.068-3.081-0.202c-0.923-0.22-1.56-0.668-1.891-1.333c-0.258-0.51-0.33-0.994-0.215-1.433c0.224-0.839,1.39-1.664,3.466-2.451c2.765-1.045,4.372-1.737,4.777-2.054c0.703-0.545,1.323-1.161,1.844-1.832c0.528-0.683,0.892-1.393,1.085-2.111c0.095-0.366,0.144-0.734,0.146-1.091c0.022-0.852-0.596-1.536-1.837-2.034c-0.693-0.267-1.16-0.512-1.385-0.726l-0.096-0.09l-0.118,0.055c-2.46,1.145-4.618,2.797-6.412,4.909c-1.793,2.112-3.001,4.301-3.589,6.508c-0.138,0.522-0.215,0.872-0.245,1.1c-0.246,1.533,0.186,2.743,1.281,3.596c0.944,0.745,2.298,1.123,4.022,1.123c1.555,0,3.064-0.309,4.486-0.918c0.305-0.13,0.597-0.276,0.882-0.432c-0.025,0.096-0.042,0.181-0.046,0.248l-0.197,0.737l0.131,0.029c0.431,0.093,0.775,0.138,1.051,0.138c0.77,0,1.428-0.272,1.959-0.811l0.021-0.025c0.496-0.576,1.059-1.229,1.635-1.879c1.304-1.37,2.305-2.349,2.979-2.911c1.02-0.874,2.151-1.612,3.365-2.195c0.172,1.77,0.369,3.617,0.6,5.643c0.089,0.631,0.299,1.089,0.622,1.361c0.321,0.273,0.749,0.411,1.271,0.411c0.909,0,2.152-0.458,3.693-1.362c0.934-0.545,5.645-3.52,5.645-3.52L120.078,24.859z M92.142,19.58c0.358-0.564,0.828-1.153,1.393-1.75c0.566-0.599,1.114-1.088,1.626-1.452c0.751-0.514,1.39-0.776,1.901-0.776c0.361,0,0.672,0.175,0.923,0.517c0.165,0.232,0.206,0.51,0.123,0.825c-0.157,0.592-0.633,1.234-1.416,1.91c-0.798,0.69-1.615,1.215-2.43,1.561c-0.17,0.09-0.547,0.229-1.116,0.41c-0.503,0.16-0.845,0.241-1.021,0.241c-0.017,0-0.034-0.001-0.068-0.004h-0.617C91.6,20.552,91.836,20.054,92.142,19.58z"/>
	<path d="M38.25,7.968l0.009-0.214h-0.217c-0.035,0-0.119-0.066-0.176-0.112c-0.118-0.094-0.28-0.222-0.488-0.222c-0.061,0-0.119,0.011-0.204,0.042L37.147,7.48l-0.024,0.023c-1.279,1.43-2.295,3.268-3.019,5.464c-0.723,2.191-1.385,4.3-1.967,6.265c-0.726,2.178-1.705,3.976-2.911,5.346c-1.91-2.176-3.606-4.127-5.183-5.957c-2.056-2.43-3.455-4.618-4.155-6.501c-0.146-0.454-0.294-0.76-0.449-0.935c-0.269-0.322-0.606-0.486-1.003-0.486c-0.307,0-0.691,0.113-1.142,0.336c-0.222,0.12-0.44,0.267-0.649,0.436c-0.231,0.191-0.377,0.41-0.448,0.682l-0.001,0.03l0.005,0.032c0.163,0.75,0.343,1.511,0.535,2.26c-0.066,0.572-0.174,1.145-0.322,1.706c-0.267,0.999-1.34,3.343-3.188,6.966c-0.837,1.643-1.413,3.045-1.712,4.164c-0.29,1.085-0.383,2.101-0.277,3.018l0.026,0.229l0.22-0.066c0.828-0.243,1.525-0.688,2.069-1.323c0.547-0.636,1.022-1.707,1.414-3.182l0.118-0.441l0.352-1.325c0.264-0.984,0.698-2.123,1.289-3.386c0.569-1.215,1.173-2.403,1.794-3.534c1.004,0.436,2.085,1.378,3.216,2.8c1.668,2.066,2.712,3.312,3.018,3.604c1.063,1.006,1.898,1.953,2.479,2.815c0.704,1.067,1.17,2.156,1.388,3.235l0.036,0.179l0.181-0.027c0.965-0.142,1.69-0.472,2.154-0.981c0.452-0.497,0.79-1.153,1.003-1.954c0.052-0.276,0.108-0.56,0.164-0.848l0.086-0.439c0.087-0.442,0.185-0.871,0.295-1.274l0.015-0.055c0.016-0.068,0.04-0.158,0.072-0.274c0.039-0.149,0.092-0.294,0.162-0.445c1.292-3.129,2.352-5.86,3.151-8.116C36.746,13.247,37.522,10.711,38.25,7.968z"/>
	<path d="M48.31,27.302c-0.809,0-1.412-0.159-1.793-0.474c-0.354-0.294-0.452-0.837-0.293-1.613c0.117-0.568,0.507-1.254,1.16-2.041c1.476-1.788,2.312-2.959,2.484-3.485c0.071-0.347,0.619-2.997,0.668-3.231c0.161-0.775,0.226-1.332,0.195-1.657c-0.076-0.676-0.456-1.075-1.139-1.185l-0.47,0.01c-1.875,0.624-3.614,1.44-5.167,2.424c-1.554,0.988-2.989,2.144-4.264,3.438c-0.607,0.624-1.643,1.655-3,2.983c-2.007,2.112-3.187,3.97-3.507,5.522c-0.184,0.893-0.134,1.521,0.153,1.92c0.29,0.401,0.766,0.603,1.413,0.603c0.978,0,2.523-0.52,4.591-1.544c1.078-0.543,2.328-1.2,3.714-1.959c0.431,0.717,1.137,1.31,2.1,1.763c1.027,0.484,2.168,0.73,3.391,0.73c0.833,0,3.587-0.173,4.045-2.412l0.061-0.3l-0.299,0.067C50.418,27.297,48.396,27.302,48.31,27.302z M44.258,23.353c-2.126,2.263-4.74,3.877-7.771,4.794c-0.096-0.456-0.122-0.79-0.08-0.993c0.049-0.241,0.309-0.77,0.776-1.573c0.462-0.803,1.136-1.642,2.003-2.496c0.836-0.825,1.719-1.684,2.622-2.552c1.417-1.316,2.619-2.319,3.573-2.98c0.919-0.633,1.615-0.955,2.067-0.955h0.539C47.435,19.031,46.181,21.303,44.258,23.353z"/>
	<path d="M65.055,18.141l0.121-0.021l0.209-0.782c0.087-0.335-0.033-0.627-0.367-0.854l-0.016-0.01l-0.508,0.002c-1.525,0.231-2.945,0.436-4.341,0.627c0.048-0.749,0.243-1.244,0.534-1.979l0.009-0.022c0.088-0.222,0.184-0.466,0.286-0.742c0.039-0.108,0.079-0.186,0.129-0.284c0.082-0.159,0.167-0.323,0.244-0.624c0.236-0.502,0.256-1.016,0.233-1.359c-0.063-0.872-0.917-1.496-0.954-1.522l-0.125-0.089l-0.114,0.101c-0.59,0.517-0.988,1.058-1.345,1.568c-0.478,0.684-0.707,1.512-0.93,2.314c-0.204,0.738-0.397,1.436-0.77,1.975c-0.292,0.423-0.648,0.691-1.12,0.841l-0.047,0.015c-0.523,0.168-0.787,0.252-1.578,0.252c-0.013-0.001-1.279-0.105-2.081-0.105c-0.075,0-0.145,0.001-0.209,0.003H52.05l0.083,0.252c0.204,0.625,0.652,1.096,2.242,1.515c1.133,0.303,1.226,0.789,1.003,1.63c-0.057,0.166-0.122,0.453-0.202,0.802c-0.122,0.533-0.273,1.195-0.448,1.647c-0.3,0.77-0.534,1.471-0.695,2.082c-0.244,0.913-0.38,1.763-0.409,2.525c-0.027,0.775,0.099,1.509,0.376,2.181l0.07,0.17l0.173-0.063c0.684-0.247,1.223-0.663,1.602-1.237c0.372-0.562,0.681-1.3,0.918-2.191c0.145-0.546,0.319-1.357,0.518-2.408c0.099-0.527,0.189-1.151,0.269-1.714c0.077-0.537,0.144-1.001,0.196-1.198c0.024-0.091,0.06-0.224,0.109-0.403c0.04-0.161,0.16-0.473,0.358-0.925c0.097-0.226,0.574-0.679,2.674-1.175C61.803,18.727,63.206,18.46,65.055,18.141z"/>
</g>
<g fill="#ffffff">
	<path d="M88.399,17.678l-0.038-0.107c-0.063-0.174-0.224-0.382-0.64-0.382c-0.242,0-0.456,0.071-0.459,0.072c-3.132,0.73-3.999,1.665-6.262,3.036c0.062-0.752,0.128-2.145,0.059-2.639l-0.022-0.152l-0.146,0.048c-0.714,0.235-1.287,0.586-1.702,1.043c-0.404,0.451-0.722,0.979-0.944,1.567c-0.058,0.156-0.146,0.672-0.24,1.217c-0.069,0.4-0.141,0.815-0.194,1.045c-0.124,0.53-0.242,1.028-0.35,1.474c-0.413,1.095-0.688,2.008-0.825,2.735c-1.354,0.211-2.193,0.317-2.491,0.317c-0.554,0-0.971-0.102-1.242-0.305c-0.252-0.19-0.344-0.528-0.273-0.998c0.121-0.455,0.509-1.384,1.189-2.838c0.297-0.584,0.505-1.097,0.619-1.524c0.101-0.381,0.147-0.764,0.135-1.14c-0.012-0.371-0.081-0.742-0.205-1.104l-0.05-0.145l-0.134,0.075c-0.842,0.469-1.665,1.26-2.448,2.352c-0.423,0.578-1.06,1.503-1.947,2.824c-0.82,1.044-1.576,1.861-2.244,2.432c-1.08,0.918-2.09,1.384-3.004,1.384c-1.086,0-1.706-0.382-1.84-1.135c-0.07-0.391,0.04-1.139,0.326-2.22c0.035-0.127,0.202-0.624,0.799-2.264c0.124-0.336,0.256-0.77,0.395-1.289c0.137-0.52,0.214-0.994,0.229-1.409c0.016-0.43-0.054-0.852-0.207-1.259l-0.046-0.121l-0.121,0.047c-0.835,0.33-1.469,0.781-1.887,1.341c-0.412,0.553-0.734,1.26-0.958,2.103c-0.094,0.346-0.197,0.838-0.308,1.462c-0.114,0.639-0.204,1.077-0.273,1.337c-0.025,0.087-0.132,0.389-0.329,0.924c-0.202,0.551-0.345,0.985-0.435,1.325c-0.091,0.338-0.125,0.649-0.101,0.924c0.023,0.295,0.137,0.569,0.337,0.819c0.369,0.408,0.906,0.729,1.597,0.952c0.681,0.222,1.466,0.335,2.333,0.335c1.075,0,2.017-0.208,2.88-0.636c0.472-0.235,2.178-1.555,2.61-1.892c0.219,0.162,0.518,0.39,0.911,0.695c0.384,0.284,0.954,0.532,1.246,0.628c0.656,0.219,1.326,0.33,1.991,0.33c1.15,0,2.159-0.333,2.971-0.748c0.308,0.637,1.118,1.084,1.546,1.321l0.1,0.055l0.067-0.093c1.608-2.243,2.283-5.481,2.338-5.758c1.337-1.78,4.963-4.713,7.584-6.012L88.399,17.678z"/>
	<path d="M119.574,23.976c-0.876-0.682-0.949-0.682-1.013-0.682c-0.115,0-2.521,1.245-2.867,1.403c-0.305,0.137-0.635,0.277-1.014,0.427l-2.776,1.234c-0.208-1.269-0.408-2.582-0.593-3.906c-0.305-1.94-0.953-2.999-1.921-3.146c-0.12-0.024-0.276-0.035-0.476-0.035c-1.067,0-2.423,0.577-4.027,1.716c-0.78,0.558-1.871,1.335-3.273,2.332c0.218-0.658,0.735-2.151,1.573-4.544c0.303-0.866,0.604-1.854,0.892-2.935l0.043-0.162h-0.167c-0.905,0-1.673,0.3-2.284,0.889c-0.61,0.59-1.14,1.754-1.619,3.556c0,0-0.271,1.018-0.329,1.235c-0.107,0.405-0.494,1.858-0.494,1.858c-0.072,0.269-0.147,0.496-0.22,0.668c-0.406,0.769-0.829,1.607-1.261,2.49c-0.298,0.138-0.628,0.295-0.995,0.474c-1.064,0.519-2.039,0.783-2.896,0.783c-1.455,0-2.492-0.068-3.081-0.202c-0.923-0.22-1.56-0.668-1.891-1.333c-0.258-0.511-0.33-0.993-0.215-1.432c0.225-0.839,1.39-1.664,3.467-2.451c2.765-1.046,4.372-1.737,4.777-2.054c0.703-0.545,1.324-1.161,1.844-1.832c0.528-0.683,0.893-1.393,1.085-2.112c0.095-0.366,0.144-0.734,0.146-1.091c0.022-0.852-0.596-1.536-1.837-2.034c-0.693-0.267-1.16-0.512-1.385-0.726l-0.096-0.09l-0.118,0.055c-2.46,1.145-4.618,2.796-6.412,4.909c-1.793,2.112-3,4.301-3.589,6.508c-0.137,0.522-0.215,0.872-0.245,1.1c-0.246,1.533,0.186,2.743,1.281,3.596c0.944,0.745,2.297,1.123,4.023,1.123c1.555,0,3.064-0.309,4.486-0.918c0.305-0.13,0.597-0.276,0.882-0.432c-0.025,0.096-0.042,0.181-0.046,0.248l-0.197,0.737l0.131,0.029c0.431,0.093,0.775,0.139,1.051,0.139c0.771,0,1.428-0.272,1.959-0.811l0.022-0.025c0.496-0.576,1.059-1.229,1.635-1.879c1.304-1.371,2.305-2.35,2.979-2.911c1.019-0.874,2.151-1.612,3.364-2.195c0.172,1.77,0.369,3.617,0.6,5.642c0.089,0.631,0.299,1.089,0.621,1.361c0.321,0.273,0.749,0.411,1.272,0.411c0.908,0,2.152-0.458,3.693-1.363c0.934-0.545,5.645-3.521,5.645-3.521L119.574,23.976z M91.637,18.696c0.358-0.564,0.827-1.153,1.393-1.75c0.565-0.599,1.113-1.088,1.626-1.452c0.751-0.514,1.39-0.776,1.901-0.776c0.361,0,0.672,0.175,0.923,0.517c0.165,0.232,0.206,0.51,0.123,0.825c-0.156,0.592-0.633,1.234-1.416,1.91c-0.798,0.69-1.615,1.215-2.43,1.561c-0.17,0.09-0.546,0.228-1.116,0.41c-0.502,0.16-0.845,0.241-1.02,0.241c-0.018,0-0.034-0.001-0.068-0.004h-0.617C91.096,19.669,91.331,19.171,91.637,18.696z"/>
	<path d="M37.745,7.085l0.009-0.214h-0.217c-0.035,0-0.119-0.066-0.176-0.112c-0.119-0.094-0.28-0.222-0.489-0.222c-0.061,0-0.119,0.011-0.204,0.042l-0.026,0.018l-0.024,0.023c-1.279,1.43-2.295,3.268-3.019,5.464c-0.723,2.191-1.385,4.3-1.967,6.265c-0.726,2.178-1.705,3.976-2.911,5.346c-1.91-2.177-3.606-4.127-5.183-5.957c-2.056-2.43-3.455-4.618-4.155-6.501c-0.146-0.453-0.294-0.76-0.449-0.935c-0.269-0.322-0.606-0.486-1.003-0.486c-0.307,0-0.691,0.113-1.142,0.336c-0.222,0.12-0.44,0.267-0.649,0.436c-0.231,0.191-0.377,0.41-0.448,0.682l-0.001,0.03l0.005,0.032c0.163,0.75,0.343,1.511,0.535,2.26c-0.066,0.572-0.174,1.145-0.322,1.705c-0.267,0.999-1.34,3.343-3.188,6.967c-0.837,1.643-1.413,3.045-1.712,4.164c-0.29,1.084-0.383,2.101-0.277,3.018l0.026,0.229l0.22-0.066c0.828-0.244,1.525-0.689,2.069-1.323c0.547-0.636,1.023-1.707,1.414-3.182l0.118-0.441l0.352-1.326c0.264-0.984,0.698-2.123,1.289-3.386c0.569-1.215,1.173-2.403,1.794-3.534c1.003,0.437,2.085,1.378,3.216,2.8c1.668,2.066,2.712,3.311,3.018,3.604c1.063,1.006,1.898,1.953,2.479,2.815c0.704,1.067,1.17,2.156,1.388,3.235l0.036,0.179l0.181-0.027c0.965-0.142,1.689-0.472,2.154-0.981c0.452-0.497,0.79-1.153,1.003-1.954c0.052-0.277,0.108-0.56,0.164-0.849l0.086-0.438c0.087-0.443,0.185-0.871,0.295-1.274l0.015-0.055c0.017-0.068,0.04-0.158,0.072-0.274c0.039-0.149,0.092-0.294,0.162-0.445c1.291-3.129,2.352-5.86,3.151-8.116C36.241,12.364,37.017,9.828,37.745,7.085z"/>
	<path d="M47.806,26.419c-0.809,0-1.412-0.16-1.793-0.475c-0.354-0.294-0.452-0.837-0.293-1.613c0.117-0.568,0.507-1.254,1.16-2.041c1.476-1.789,2.312-2.959,2.484-3.485c0.071-0.347,0.619-2.997,0.668-3.231c0.161-0.775,0.226-1.332,0.195-1.657c-0.076-0.676-0.456-1.075-1.139-1.185l-0.469,0.01c-1.875,0.625-3.614,1.44-5.167,2.424c-1.554,0.988-2.989,2.144-4.264,3.438c-0.607,0.623-1.643,1.655-3,2.983c-2.007,2.112-3.187,3.97-3.507,5.521c-0.184,0.893-0.134,1.521,0.153,1.92c0.29,0.401,0.766,0.603,1.413,0.603c0.978,0,2.523-0.52,4.591-1.544c1.078-0.542,2.328-1.2,3.714-1.959c0.43,0.717,1.137,1.31,2.1,1.763c1.028,0.484,2.168,0.73,3.391,0.73c0.833,0,3.587-0.174,4.045-2.412l0.061-0.3l-0.298,0.067C49.913,26.414,47.891,26.419,47.806,26.419z M43.753,22.47c-2.126,2.263-4.74,3.877-7.771,4.794c-0.096-0.456-0.122-0.79-0.08-0.993c0.049-0.241,0.309-0.77,0.776-1.574c0.462-0.803,1.136-1.642,2.003-2.496c0.836-0.825,1.719-1.684,2.622-2.552c1.417-1.316,2.619-2.318,3.573-2.98c0.919-0.633,1.615-0.955,2.067-0.955h0.539C46.93,18.147,45.676,20.42,43.753,22.47z"/>
	<path d="M64.55,17.258l0.121-0.021l0.209-0.782c0.087-0.335-0.033-0.627-0.367-0.854l-0.016-0.01l-0.508,0.002c-1.525,0.231-2.945,0.436-4.341,0.627c0.048-0.749,0.243-1.243,0.534-1.979l0.009-0.022c0.088-0.223,0.184-0.465,0.286-0.742c0.039-0.108,0.079-0.186,0.129-0.284c0.082-0.159,0.167-0.323,0.244-0.624c0.236-0.502,0.256-1.016,0.233-1.359c-0.063-0.872-0.917-1.496-0.954-1.522l-0.125-0.089L59.89,9.7c-0.59,0.517-0.988,1.058-1.345,1.568c-0.478,0.684-0.707,1.512-0.93,2.314c-0.204,0.738-0.397,1.436-0.77,1.975c-0.292,0.423-0.648,0.691-1.12,0.841l-0.047,0.015c-0.523,0.168-0.786,0.252-1.578,0.252c-0.013-0.001-1.279-0.105-2.081-0.105c-0.075,0-0.145,0.001-0.209,0.003h-0.265l0.083,0.252c0.204,0.625,0.652,1.096,2.242,1.515c1.133,0.303,1.226,0.789,1.003,1.63c-0.057,0.166-0.122,0.453-0.202,0.802c-0.122,0.532-0.273,1.195-0.448,1.646c-0.3,0.77-0.534,1.471-0.696,2.083c-0.243,0.913-0.38,1.763-0.409,2.525c-0.027,0.775,0.099,1.509,0.376,2.181l0.07,0.169l0.173-0.062c0.684-0.247,1.223-0.663,1.602-1.238c0.372-0.562,0.681-1.3,0.918-2.191c0.145-0.546,0.319-1.357,0.518-2.408c0.099-0.527,0.189-1.151,0.27-1.714c0.077-0.537,0.144-1.001,0.196-1.198c0.024-0.091,0.06-0.223,0.109-0.403c0.04-0.161,0.16-0.473,0.358-0.925c0.097-0.225,0.574-0.679,2.674-1.175C61.299,17.844,62.702,17.577,64.55,17.258z"/>
</g>
</svg>
