<?xml version="1.0" encoding="utf-8"?>
<!DOCTYPE svg>
<svg version="1.1" baseProfile="full" xmlns="http://www.w3.org/2000/svg" xmlns:xlink="http://www.w3.org/1999/xlink" x="0px" y="0px" width="220px" height="54px" viewBox="0 0 220 54" enable-background="new 0 0 220 54" xml:space="preserve">
<g fill="#6fa529">
	<path d="M20.06,46H18v-1.686c0-1.087,0.094-2.703-0.04-4.849C17.906,38.502,18,37.76,18,37.239v-0.119c0-0.256-0.054-0.544-0.054-0.862l-0.324-9.374c5.767-0.515,10.737-5.121,11.074-10.865l3.432-0.829l-3.517-0.843c-0.428-2.814-2.576-5.115-5.165-5.115c-2.881,0-5.222,3.769-5.244,5.769H11.17L5.723,7.765L0,12.106l5.228,3.273C5.248,21.473,10.009,27,16.053,27h0.007c0.016,3,0.106,4.858,0.271,8.569c0.183,4.112,0.274,7.173,0.274,9.232l-0.174,1.181c0,0.229,0.096,0.425,0.288,0.597c0.192,0.173,0.428,0.255,0.71,0.255c0.281,0,0.515-0.111,0.703-0.332l0.884,0.039c0.196,0,0.37-0.018,0.522-0.053c0.188,0.062,0.353,0.092,0.496,0.092c0.143,0,0.281-0.077,0.415-0.232c0.134-0.155,0.201-0.305,0.201-0.45c0-0.146-0.022,0.154-0.067,0.074C20.538,45.893,20.364,46,20.06,46z M25.037,13.792c0.595,0,1.079,0.476,1.079,1.066c0,0.589-0.483,1.067-1.079,1.067c-0.595,0-1.078-0.478-1.078-1.067C23.958,14.268,24.441,13.792,25.037,13.792z"/>
	<path d="M28,26.268v0.053c0-0.159-0.511-0.239-0.85-0.239c-0.572,0-1.119,1.166-1.61,3.498c-0.098,0.442-0.401,2.036-0.892,4.783c-1.259,6.952-2.098,10.724-2.508,11.315c0.089,0.362,0.574,0.543,1.458,0.543c0.268-0.433,0.461-1.221,0.581-2.365c0.121-1.144,0.292-1.901,0.515-2.272c0.518,0.035,1.182,0.115,1.847,0.238C27.206,41.947,27,42.097,28,42.273v3.538c0,0.468,0.226,0.702,0.824,0.702c0.598,0,0.861-0.305,0.861-0.914c0-2.226-0.182-5.37-0.574-9.434C28.717,32.102,28,28.803,28,26.268z M26.756,40.684c-0.5,0-1.129-0.102-1.888-0.305c0.018-0.415,0.147-1.007,0.388-1.776c0.116-0.371,0.201-0.663,0.254-0.874c0.054-0.212,0.283-1.537,0.69-3.975c0.406-2.438,0.663-3.719,0.77-3.842c-0.009,0.044-0.013,0.311-0.013,0.802c0,0.49,0.201,2.811,0.603,6.963c0.152,1.625,0.241,2.601,0.268,2.928C27.613,40.657,27.255,40.684,26.756,40.684z"/>
	<path d="M121.083,11.429c-3.818,0-5.726,0.585-5.726,1.755c0,0.341,0.12,0.638,0.362,0.889c0.242,0.252,0.53,0.378,0.865,0.378c0.335,0,0.814-0.081,1.437-0.244c0.312-0.081,0.522-0.13,0.631-0.146c0.358,2.339,0.561,4.914,0.608,7.725c0.015,1.056,0.031,2.425,0.047,4.106c0.015,1.681,0.035,3.062,0.058,4.143c0.023,1.081,0.117,3.164,0.281,6.25c0.164,3.087,0.245,5.458,0.245,7.116c0,3.022-0.639,5.369-1.917,7.042c-0.452,0.195-0.877,0.479-1.274,0.853c-0.397,0.374-0.596,0.788-0.596,1.243c0,0.455,0.164,0.812,0.491,1.072c0.327,0.26,0.74,0.39,1.239,0.39c1.73-1.283,2.937-2.88,3.623-4.788c0.686-1.909,1.028-4.195,1.028-6.86c0-2.664-0.144-6.153-0.432-10.466c-0.289-4.313-0.289-7.55-0.289-9.711L122,14.45v-0.366c1,0.049,1.984-0.381,1.984-1.291C123.984,11.884,122.921,11.429,121.083,11.429z"/>
	<path d="M137,12.014v0.097c-1-0.292-0.927-0.439-1.519-0.439c-0.997,0-1.972,2.144-2.828,6.433c-0.172,0.813-0.709,3.745-1.566,8.797c-2.197,12.785-3.666,19.722-4.382,20.81c0.156,0.666,0.999,0.999,2.542,0.999c0.467-0.796,0.803-2.246,1.014-4.35c0.21-2.104,0.509-3.497,0.899-4.179c0.904,0.065,1.599,0.211,2.76,0.439C135.078,40.85,136,41.125,136,41.45v6.506c0,0.861,0.858,1.292,1.902,1.292c1.044,0,1.734-0.561,1.734-1.681c0-4.094-0.165-9.877-0.851-17.35C138.099,22.744,137,16.676,137,12.014z M134.756,38.526c-0.873,0-1.971-0.186-3.295-0.561c0.031-0.764,0.257-1.852,0.678-3.265c0.202-0.682,0.351-1.218,0.444-1.608c0.094-0.39,0.494-2.827,1.204-7.311c0.709-4.484,1.157-6.839,1.344-7.067c-0.016,0.082-0.023,0.573-0.023,1.474s0.351,5.17,1.052,12.806c0.265,2.989,0.421,4.785,0.467,5.385C136.252,38.477,135.628,38.526,134.756,38.526z"/>
	<path d="M151.35,37.491c-0.343-1.194-0.713-2.762-1.11-4.703c-0.397-1.941-0.604-3.561-0.619-4.862c0.047-0.13,0.21-0.56,0.491-1.291c0.28-0.731,0.467-1.21,0.561-1.438c0.779-2.096,1.169-3.956,1.169-5.58c0-2.014-0.483-3.858-1.449-5.532c-0.467-0.812-1.091-1.474-1.87-1.986c-0.78-0.512-1.543-0.768-2.291-0.768c-0.748,0-1.021,0.082-1.177,0.244c-0.156,0.162-0.055,0.439-0.055,0.829v6.141V47.81v0.39c0,0.39-0.21,0.719,0.055,0.987c0.265,0.268,0.795,0.402,1.169,0.402c1.043,0,1.777-0.528,1.777-1.584V28.34c0,1.186,0.23,2.904,0.611,5.154c0.382,2.25,0.467,3.781,0.639,4.593c0.171,0.813,0.735,2.38,1.445,4.703c0.709,2.323,1.305,4.151,1.305,5.483v0.171c0,0.893,0.7,1.34,1.292,1.34c0.763,0,0.708-0.544,0.708-1.633v-0.731c0-0.357-0.347-1.803-1.15-4.337C152.048,40.549,151.693,38.685,151.35,37.491z M148.429,24.173c-0.499,0.747-1.013,1.389-1.543,1.925c-0.032-0.503-0.047-1.267-0.047-2.291l0.257-10.186c0.483,0.097,0.943,0.731,1.379,1.901c0.436,1.17,0.654,2.616,0.654,4.338L148.429,24.173z"/>
	<path d="M169.511,23.101c-0.078-1.413-0.234-2.696-0.467-3.85c-0.39-1.965-1.481-3.56-3.272-5.331c-1.481-1.462-2.875-1.92-4.184-1.92h-0.467c-0.265,0-0.693-0.257-1.286-0.224c-0.359,0.032-0.654-0.052-0.888,0.021c-0.234,0.073-0.476,0.102-0.725,0.224c-0.249,0.122-0.436,0.255-0.561,0.465c-0.125,0.211-0.187,0.458-0.187,0.775c0,0.317,0.105,0.771,0.316,1.38c0.21,0.609,0.386,1.247,0.526,1.921c0.14,0.674,0.21,1.781,0.21,3.324l-0.14,5.457c0,1.82,0.148,4.557,0.444,8.212c0.296,3.655,0.444,6.409,0.444,8.261c0,3.152-0.351,5.109-1.052,5.873c0,0.569,0.241,0.995,0.725,1.279c0.483,0.284,0.931,0.426,1.344,0.426c0.412,0,0.833-0.106,1.262-0.317c0.429-0.211,1.251-0.894,2.466-2.047c1.636-1.56,3.007-3.834,4.114-6.823c1.106-2.989,1.635-5.742,1.635-8.261c0-0.698,0.233-1.202,0.233-1.511v-2.315c0-0.39-0.257-1.121-0.35-2.193C169.619,25.457,169.589,24.514,169.511,23.101z M166.994,36.333C165.997,41.288,164,44.675,162,46.495v-4.776c0-2.957-0.294-7.46-0.512-13.512C161.27,22.155,161,17.586,161,14.499V14.45c4,0,6.69,4.67,6.69,14.012C167.69,31.176,167.493,33.799,166.994,36.333z"/>
	<path d="M180.598,46.446L180,46.47v-2.144c0-3.249-0.586-8.115-0.991-14.597c-0.405-6.482-0.799-11.347-0.799-14.597c0-0.406-0.022-0.678,0.126-0.816c0.148-0.138,0.329-0.207,0.641-0.207l0.818,0.024c0.327,0,0.584-0.134,0.794-0.402c0.21-0.268,0.31-0.585,0.31-0.95c0-0.366-0.143-0.682-0.423-0.95c-0.28-0.268-0.746-0.402-1.392-0.402c-0.647,0-1.641,0.122-2.981,0.366c-0.717,0.131-1.317,0.345-1.8,0.646c-0.483,0.301-0.725,0.654-0.725,1.06c0,0.796,0.374,1.194,1.122,1.194c0.327,0,0.701-0.073,1.122-0.219c0.078,0.78,0.117,1.706,0.117,2.778l-0.094,5.093c0,2.567,0.148,6.413,0.444,11.538c0.296,5.126,0.444,8.517,0.444,10.174c0,1.657-0.078,2.486-0.234,2.486l-1.473-0.024c-0.966,0-1.449-0.023-1.449,0.741c0,0.764,0.459,0.74,1.379,0.74h6.007c0.436,0,0.775,0.287,1.017,0.052c0.241-0.236,0.492-0.428,0.367-0.98C182.347,46.52,181.892,46.446,180.598,46.446z"/>
	<path d="M197.64,10.381c-0.865,0-1.64,0.414-1.64,1.243v14.767l-0.086,17.399c-0.062-0.698-0.191-1.292-0.44-1.779c-0.14-2.81-0.727-5.986-1.786-9.528c-0.421-1.38-0.858-2.969-1.326-4.764c-0.467-1.795-0.779-3.147-0.943-4.057c-0.164-0.91-0.299-1.99-0.407-3.241c-0.032-0.374-0.081-0.795-0.151-1.267c-0.07-0.471-0.151-0.885-0.245-1.243c-0.093-0.357-0.257-0.873-0.49-1.547c-0.234-0.674-0.413-1.283-0.537-1.828c-0.125-0.544-0.187-1.092-0.187-1.645c0-0.552-0.273-0.983-0.818-1.292c-0.234-0.13-0.569-0.195-1.005-0.195c-0.436,0-0.857,0.163-1.262,0.487c-0.172,0.146-0.123,0.837-0.123,2.071L186,23.125v6.36c0,0.862-0.033,3.225,0.169,7.091c0.203,3.866,0.237,6.336,0.237,7.408c0,1.072,0.265,1.998,0.343,2.778c0.078,0.78,0.25,1.292,0.25,1.535V49h1V17.643c0,0.211,0.272,0.849,0.56,1.913c0.288,1.064,0.465,1.937,0.45,2.62c0.155,0.228,0.262,0.52,0.277,0.877c0.015,0.13,0.037,0.292,0.045,0.487c0.008,0.195,0.032,0.35,0.064,0.463c0.545,3.688,1.802,9.171,3.765,16.448c1.013,3.786,1.606,6.271,1.777,7.457c0.031,0.211,0.083,0.439,0.153,0.682c0.07,0.244,0.152,0.447,0.246,0.609c0.094,0.162,0.23,0.3,0.409,0.414c0.178,0.114,0.444,0.171,0.794,0.171c0.351,0,0.943-0.089,1.271-0.268c0.623-0.357,1.188-0.934,1.188-1.73V32.532l-0.058-18.447c0-0.536,0.058-1.023,0.058-1.462V12.33C199,11.031,198.505,10.381,197.64,10.381z"/>
</g>
<g fill="#4b4b4b">
	<path d="M45.095,1.023c-0.974-0.552-2.053-0.828-3.237-0.828c-0.717,0-1.324,0.374-1.823,1.121c0.81,3.981,1.215,9.918,1.215,17.813l-0.234,17.813c0,0.422,0.093,0.808,0.28,1.158c0.187,0.349,0.475,0.524,0.865,0.524c1.06,0,1.589-0.69,1.589-2.071l-0.374-15.547c1.963-1.105,3.451-2.652,4.464-4.642c1.013-1.99,1.519-4.2,1.519-6.628c0-2.428-0.631-4.602-1.893-6.518C46.859,2.307,46.068,1.576,45.095,1.023z M47,10.137c0,3.25-1.266,6.068-3.681,8.456c0-1.754-0.096-4.386-0.228-7.895c-0.133-3.509-0.221-6.141-0.237-7.895c1.324,0.991,2.303,1.771,2.833,2.339C46.528,6.052,47,7.709,47,10.113V10.137z"/>
	<path d="M63,1.097v0.097c-1-0.292-0.934-0.439-1.526-0.439c-0.997,0-1.975,2.144-2.831,6.433c-0.172,0.813-0.711,3.745-1.568,8.797c-2.197,12.785-3.667,19.722-4.383,20.811c0.156,0.666,0.999,0.999,2.541,0.999c0.467-0.796,0.803-2.246,1.014-4.35c0.21-2.104,0.509-3.497,0.898-4.179c0.903,0.065,2.106,0.211,3.266,0.439C61.572,29.933,62,30.209,63,30.533v6.506c0,0.861,0.351,1.292,1.396,1.292c1.044,0,1.481-0.561,1.481-1.681c0-4.094-0.285-9.877-0.971-17.35C64.22,11.827,63,5.76,63,1.097z M60.743,27.609c-0.873,0-1.971-0.186-3.296-0.561c0.031-0.764,0.257-1.852,0.678-3.265c0.202-0.682,0.351-1.218,0.444-1.608c0.093-0.39,0.494-2.827,1.204-7.311c0.709-4.484,1.157-6.839,1.344-7.067c-0.016,0.082-0.023,0.573-0.023,1.474c0,0.902,0.351,5.17,1.052,12.806c0.265,2.989,0.421,4.785,0.467,5.385C62.238,27.56,61.615,27.609,60.743,27.609z"/>
	<path d="M83,22.614v-0.073c0-1.803-0.19-4.569-0.424-8.297c-0.234-3.728-0.174-6.559-0.174-8.492L83,2.705V1.876l-1.651-1.17c-0.405,0-0.869,0.126-1.188,0.378c-0.319,0.252-0.53,0.715-0.53,1.389c0,0.674,0.342,1.966,0.684,3.875C80.658,8.257,81,9.683,81,10.625v22.394c0,0.406-0.203,0.755-0.219,1.048c-0.062,2.291-0.799,3.436-2.014,3.436c-0.748,0-1.502-0.39-2.164-1.17c-0.662-0.78-1.213-1.722-1.602-2.827c-0.39-1.105-0.71-2.197-0.936-3.278c-0.226-1.08-0.345-1.99-0.345-2.729c0-0.739-0.07-1.775-0.202-3.107c-0.132-1.332-0.294-2.218-0.481-2.656l-0.445-17.35c0-2.372-0.577-3.558-1.73-3.558c-0.374,0-0.698,0.155-0.97,0.463C69.62,1.6,69.484,1.958,69.484,2.364c0,0.406,0.117,0.747,0.351,1.023c0,0.813,0.16,4.898,0.479,12.257c0.319,7.359,0.494,11.079,0.526,11.161c0.312,1.04,0.725,2.811,1.239,5.312c0.405,2.079,1.044,3.736,1.917,4.971c0.997,1.446,2.454,2.169,4.371,2.169c1.574,0,2.735-0.569,3.482-1.706c0.795-1.218,1.192-3.29,1.192-6.214l0.41-2.9L84,27.902v-0.755l-0.523-3.07L83,22.614z"/>
	<path d="M96.298,23.662C96.033,22.752,96,22.086,96,21.663v-0.39c0-0.032-0.442-0.374-0.8-1.023c-0.359-0.649-0.923-1.487-1.429-2.51c-0.506-1.024-1.075-2.132-1.573-3.326c-0.499-1.194-0.96-2.469-1.318-3.826c-0.359-1.356-0.554-2.672-0.554-3.948c0-1.275,0.389-2.4,1.184-3.375c0.436-0.52,1.081-0.812,1.673-0.877C93.634,2.713,95,2.875,96,2.875V1.803c0-0.536-0.734-0.971-1.28-1.304C94.175,0.167,93.547,0,92.971,0c-1.137,0-2.161,0.39-3.002,1.17c-1.574,1.478-2.377,3.518-2.377,6.116c0,2.729,0.794,5.767,2.399,9.114c0.67,1.398,1.34,2.794,2.018,4.191c0.678,1.398,1.248,2.892,1.716,4.484c0.467,1.593,0.7,3.087,0.7,4.484c0,1.398-0.289,2.948-0.865,4.654c-0.28,0.845-0.67,1.551-1.169,2.12c-0.499,0.569-0.962,0.853-1.391,0.853c-0.429,0-0.935-0.126-1.519-0.378c-0.584-0.252-1.056-0.378-1.414-0.378c-0.717,0-1.075,0.447-1.075,1.34c0,0.406,0.257,0.747,0.771,1.023c0.514,0.276,1.028,0.455,1.543,0.536c0.514,0.081,1.145,0.122,1.893,0.122c0.748,0,1.554-0.301,2.419-0.902c0.865-0.601,1.55-1.377,2.057-2.327c0.506-0.95,0.896-1.962,1.169-3.034c0.272-1.072,0.409-2.201,0.409-3.387c0-1.185-0.064-2.51-0.453-3.972C96.642,25.294,96.563,24.572,96.298,23.662z"/>
	<path d="M107.43,35.651c-0.047,0-0.43,0.049-2.43,0.146V20.396c0-0.244,0.169-0.366,0.543-0.366l1.043,0.049c0.374,0,0.603-0.154,0.837-0.463c0.234-0.308,0.313-0.658,0.313-1.048s-0.163-0.722-0.451-0.999c-0.289-0.276-0.625-0.414-0.991-0.414c-0.366,0-0.881,0.089-1.535,0.268c-0.296,0.082-0.532,0.138-0.704,0.171c0-0.585,0.038-1.514,0.116-2.79c0.078-1.275,0.116-2.245,0.116-2.912l-0.374-8.237c0.109-0.016,0.28-0.024,0.514-0.024l1.379,0.049c1.449,0,2.174-0.495,2.174-1.486c0-0.487-0.245-0.881-0.736-1.182c-0.491-0.301-1.3-0.451-1.783-0.451L101,0.999v36.016c0,0.374,0.384,0.85,0.509,1.078c0.28,0.487,1.351,0.907,2.566,0.907h1.496c0.639,0,1.153-0.192,1.543-0.224c0.389-0.032,1.049-0.259,1.572-0.503c0.522-0.244,0.462-0.681,1.315-1.136v-0.171C110,36.089,109.206,35.651,107.43,35.651z"/>
	<path d="M203.784,48.388c-0.268,0-0.504,0.112-0.71,0.335c-0.205,0.223-0.308,0.473-0.308,0.747c0,0.275,0.092,0.517,0.274,0.726c0.183,0.21,0.415,0.314,0.696,0.314c0.281,0,0.524-0.095,0.73-0.286c0.206-0.19,0.308-0.433,0.308-0.726c0-0.293-0.098-0.551-0.294-0.775C204.284,48.5,204.052,48.388,203.784,48.388z"/>
	<path d="M209.837,31.049c-0.321-0.018-0.618-0.028-0.891-0.028c-0.272,0-0.517,0.075-0.736,0.223c-0.219,0.149-0.328,0.358-0.328,0.628c0,0.838-0.047,2.113-0.14,3.826c-0.093,1.712-0.166,4.093-0.214,7.141c-0.049,3.048-0.145,5.396-0.288,7.043l0.8,0.601c0.616,0,0.961-0.475,0.961-1.424v-8.097c1,0.112,0.63,0.168,0.947,0.168c0.317,0,0.555-0.077,0.752-0.231c0.196-0.153,0.286-0.356,0.286-0.607c0-0.503-0.017-0.754-0.901-0.754L210,39.551v-0.768v-5.738V32.71c1,0,1.085,0.093,1.451,0.279c0.929,0,1.241-0.27,1.241-0.809C212.692,31.565,211.639,31.188,209.837,31.049z"/>
	<path d="M219.719,48.932c-0.66-1.312-1.254-3.448-1.781-6.408c-0.25-1.368-0.424-2.28-0.523-2.736c0.544-1.089,0.915-1.997,1.112-2.723c0.196-0.726,0.295-1.74,0.295-3.043c0-0.968-0.326-1.713-0.978-2.234c-0.652-0.521-1.455-0.782-2.41-0.782c-0.607,0-0.911,0.451-0.911,1.354c0,1.722,0.078,4.328,0.235,7.818c0.156,3.49,0.234,5.75,0.234,6.778c0,1.029-0.009,1.897-0.027,2.604c0.071,0.382,0.241,0.573,0.509,0.573c0.187,0,0.355-0.112,0.502-0.335c0.148-0.223,0.221-0.549,0.221-0.978c0-0.428-0.056-1.379-0.167-2.855c-0.112-1.475-0.167-2.439-0.167-2.89c0-0.451,0.062-0.942,0.188-1.473c0.125-0.53,0.187-0.917,0.187-1.158c0.134,0.316,0.442,1.736,0.924,4.258c0.169,0.921,0.361,1.834,0.576,2.736c0.5,2.075,1.049,3.113,1.647,3.113c0.187,0,0.337-0.072,0.448-0.216c0.112-0.144,0.167-0.321,0.167-0.531C220,49.596,219.907,49.305,219.719,48.932z M217.061,37.254c-0.263,0.982-0.61,1.589-1.038,1.822c0-0.67-0.018-1.742-0.054-3.218c-0.036-1.475-0.054-2.604-0.054-3.386l0.094-0.405c0.651,0.018,1.062,0.34,1.232,0.963c0.089,0.298,0.148,0.57,0.174,0.817c0.027,0.247,0.041,0.63,0.041,1.151C217.456,35.521,217.324,36.273,217.061,37.254z"/>
</g>
</svg>
