<?xml version="1.0" encoding="utf-8"?>
<!DOCTYPE svg>
<svg version="1.1" baseProfile="full" xmlns="http://www.w3.org/2000/svg" xmlns:xlink="http://www.w3.org/1999/xlink" x="0px" y="0px" width="220px" height="32px" viewBox="0 0 220 32" enable-background="new 0 0 220 32" xml:space="preserve">
<rect fill="#ffffff" width="220" height="32"/>
<path d="M23.695,20.334h-1.287l-2.119-7.801h-0.026l-2.145,7.801h-1.287l-2.379-9.283h1.261l1.82,7.722h0.025l2.08-7.722h1.34l2.054,7.722h0.026l1.885-7.722h1.235L23.695,20.334z"/>
<path d="M32.899,18.202c-0.299,1.494-1.353,2.288-2.873,2.288c-2.146,0-3.159-1.495-3.225-3.537c0-2.028,1.326-3.498,3.159-3.498c2.379,0,3.107,2.223,3.042,3.849h-5.031c-0.039,1.17,0.624,2.21,2.094,2.21c0.923,0,1.547-0.429,1.742-1.312H32.899z M31.833,16.33c-0.064-1.053-0.832-1.898-1.937-1.898c-1.145,0-1.859,0.858-1.925,1.898H31.833z"/>
<path d="M34.185,11.051h1.104v3.471h0.026c0.364-0.741,1.209-1.066,2.146-1.066c2.066,0,3.094,1.638,3.094,3.536c0,1.911-1.014,3.498-3.068,3.498c-0.676,0-1.689-0.261-2.171-1.054H35.29v0.897h-1.104V11.051z M37.305,14.431c-1.495,0-2.054,1.287-2.054,2.535c0,1.313,0.598,2.548,2.118,2.548c1.509,0,2.016-1.287,2.016-2.6C39.385,15.653,38.735,14.431,37.305,14.431z"/>
<path d="M42.531,18.215c0.039,0.988,0.91,1.3,1.808,1.3c0.688,0,1.625-0.156,1.625-1.001c0-1.729-4.395-0.559-4.395-3.146c0-1.352,1.326-1.911,2.509-1.911c1.509,0,2.652,0.468,2.757,2.106h-1.105c-0.064-0.858-0.845-1.131-1.56-1.131c-0.663,0-1.431,0.182-1.431,0.858c0,0.78,1.17,0.936,2.197,1.17c1.105,0.247,2.197,0.625,2.197,1.912c0,1.611-1.495,2.119-2.86,2.119c-1.508,0-2.782-0.611-2.847-2.275H42.531z"/>
<path d="M49.525,12.403H48.42v-1.352h1.104V12.403z M48.42,13.612h1.104v6.722H48.42V13.612z"/>
<path d="M52.775,13.612h1.339v0.975h-1.339v4.173c0,0.52,0.143,0.598,0.832,0.598h0.507v0.976h-0.845c-1.145,0-1.6-0.234-1.6-1.47v-4.277h-1.144v-0.975h1.144v-2.015h1.105V13.612z"/>
<path d="M61.069,18.202c-0.299,1.494-1.353,2.288-2.873,2.288c-2.146,0-3.159-1.495-3.225-3.537c0-2.028,1.326-3.498,3.159-3.498c2.379,0,3.107,2.223,3.042,3.849h-5.031c-0.039,1.17,0.624,2.21,2.094,2.21c0.923,0,1.547-0.429,1.742-1.312H61.069z M60.002,16.33c-0.064-1.053-0.832-1.898-1.937-1.898c-1.145,0-1.859,0.858-1.925,1.898H60.002z"/>
<path d="M65.996,11.051H67.1v9.283h-1.104V11.051z"/>
<path d="M71.715,13.456c2.132,0,3.263,1.547,3.263,3.523c0,1.963-1.131,3.511-3.263,3.511c-2.133,0-3.264-1.548-3.264-3.511C68.452,15.003,69.583,13.456,71.715,13.456z M71.715,19.515c1.156,0,2.093-0.91,2.093-2.535s-0.937-2.548-2.093-2.548c-1.157,0-2.094,0.923-2.094,2.548S70.558,19.515,71.715,19.515z"/>
<path d="M82.076,19.762c0,2.197-0.987,3.302-3.12,3.302c-1.261,0-2.717-0.52-2.781-1.976h1.104c0.039,0.793,1.027,1.092,1.742,1.092c1.443,0,2.015-1.04,2.015-2.548v-0.442H81.01c-0.377,0.819-1.235,1.223-2.094,1.223c-2.002,0-3.003-1.573-3.003-3.406c0-1.586,0.768-3.55,3.107-3.55c0.845,0,1.599,0.377,2.002,1.118h0.013v-0.962h1.04V19.762z M80.984,16.836c0-1.183-0.52-2.405-1.911-2.405c-1.417,0-1.989,1.157-1.989,2.444c0,1.209,0.442,2.561,1.898,2.561S80.984,18.098,80.984,16.836z"/>
<path d="M86.639,13.456c2.132,0,3.263,1.547,3.263,3.523c0,1.963-1.131,3.511-3.263,3.511c-2.133,0-3.264-1.548-3.264-3.511C83.375,15.003,84.506,13.456,86.639,13.456z M86.639,19.515c1.156,0,2.093-0.91,2.093-2.535s-0.937-2.548-2.093-2.548c-1.157,0-2.094,0.923-2.094,2.548S85.482,19.515,86.639,19.515z"/>
<path d="M94.855,13.612h1.104v0.91h0.026c0.364-0.741,1.209-1.066,2.146-1.066c2.066,0,3.094,1.638,3.094,3.536c0,1.911-1.014,3.498-3.068,3.498c-0.676,0-1.689-0.261-2.171-1.054h-0.026v3.472h-1.104V13.612z M97.975,14.431c-1.495,0-2.054,1.287-2.054,2.535c0,1.313,0.598,2.548,2.118,2.548c1.509,0,2.016-1.287,2.016-2.6C100.055,15.653,99.405,14.431,97.975,14.431z"/>
<path d="M102.59,11.051h1.104v9.283h-1.104V11.051z"/>
<path d="M111.365,20.308c-0.195,0.117-0.468,0.183-0.793,0.183c-0.572,0-0.936-0.312-0.936-1.04c-0.611,0.728-1.431,1.04-2.366,1.04c-1.223,0-2.224-0.533-2.224-1.886c0-1.521,1.131-1.859,2.275-2.067c1.209-0.247,2.262-0.143,2.262-0.988c0-0.975-0.806-1.118-1.495-1.118c-0.936,0-1.625,0.286-1.677,1.274h-1.104c0.064-1.664,1.339-2.25,2.847-2.25c1.209,0,2.522,0.273,2.522,1.846v3.458c0,0.52,0,0.754,0.351,0.754c0.104,0,0.221-0.026,0.338-0.064V20.308z M109.571,16.862c-0.858,0.638-3.354,0.013-3.354,1.664c0,0.729,0.624,0.988,1.301,0.988c1.456,0,2.054-0.896,2.054-1.521V16.862z"/>
<path d="M116.955,15.771c-0.169-0.845-0.741-1.339-1.664-1.339c-1.6,0-2.094,1.274-2.094,2.626c0,1.248,0.56,2.457,1.964,2.457c1.078,0,1.703-0.611,1.846-1.638h1.131c-0.247,1.65-1.261,2.613-2.964,2.613c-2.054,0-3.146-1.418-3.146-3.433c0-2.015,1.04-3.602,3.173-3.602c1.533,0,2.729,0.715,2.898,2.314H116.955z"/>
<path d="M125.105,18.202c-0.299,1.494-1.352,2.288-2.873,2.288c-2.145,0-3.159-1.495-3.224-3.537c0-2.028,1.326-3.498,3.16-3.498c2.379,0,3.107,2.223,3.041,3.849h-5.031c-0.039,1.17,0.624,2.21,2.093,2.21c0.924,0,1.547-0.429,1.742-1.312H125.105z M124.039,16.33c-0.064-1.053-0.832-1.898-1.936-1.898c-1.145,0-1.86,0.858-1.925,1.898H124.039z"/>
<path d="M126.354,11.051h1.105V14.6h0.025c0.352-0.819,1.326-1.144,2.119-1.144c1.768,0,2.314,1.014,2.314,2.458v4.42h-1.105v-4.551c0-0.832-0.52-1.352-1.365-1.352c-1.34,0-1.988,0.897-1.988,2.106v3.796h-1.105V11.051z"/>
<path d="M136.48,13.456c2.131,0,3.262,1.547,3.262,3.523c0,1.963-1.131,3.511-3.262,3.511c-2.133,0-3.264-1.548-3.264-3.511C133.217,15.003,134.348,13.456,136.48,13.456z M136.48,19.515c1.156,0,2.092-0.91,2.092-2.535s-0.936-2.548-2.092-2.548c-1.158,0-2.094,0.923-2.094,2.548S135.322,19.515,136.48,19.515z"/>
<path d="M141.107,11.051h1.105v9.283h-1.105V11.051z"/>
<path d="M149.936,20.334h-1.105v-0.91h-0.025c-0.365,0.741-1.209,1.066-2.145,1.066c-2.068,0-3.096-1.639-3.096-3.537c0-1.898,1.016-3.498,3.068-3.498c0.676,0,1.691,0.26,2.172,1.053h0.025v-3.458h1.105V20.334z M146.814,19.515c1.496,0,2.055-1.287,2.055-2.535c0-1.313-0.598-2.548-2.119-2.548c-1.508,0-2.016,1.287-2.016,2.6C144.734,18.293,145.385,19.515,146.814,19.515z"/>
<path d="M157.371,18.202c-0.299,1.494-1.354,2.288-2.873,2.288c-2.146,0-3.16-1.495-3.225-3.537c0-2.028,1.326-3.498,3.158-3.498c2.379,0,3.107,2.223,3.043,3.849h-5.031c-0.039,1.17,0.623,2.21,2.094,2.21c0.922,0,1.547-0.429,1.742-1.312H157.371z M156.305,16.33c-0.064-1.053-0.832-1.898-1.938-1.898c-1.145,0-1.859,0.858-1.924,1.898H156.305z"/>
<path d="M158.58,13.612h1.039v1.417h0.027c0.531-1.092,1.273-1.612,2.469-1.573v1.17c-1.781,0-2.43,1.001-2.43,2.717v2.99h-1.105V13.612z"/>
</svg>
